<svg width="0" height="0" class="hidden">
  <symbol id="mail_send_icon" version="1.1" xml:space="preserve" xmlns="http://www.w3.org/2000/svg" xmlns:xlink="http://www.w3.org/1999/xlink" viewBox="0 0 100.354 100.352">
    <path d="M93.09,76.224c0.047-0.145,0.079-0.298,0.079-0.459V22.638c0-0.162-0.032-0.316-0.08-0.462  c-0.007-0.02-0.011-0.04-0.019-0.06c-0.064-0.171-0.158-0.325-0.276-0.46c-0.008-0.009-0.009-0.02-0.017-0.029  c-0.005-0.005-0.011-0.007-0.016-0.012c-0.126-0.134-0.275-0.242-0.442-0.323c-0.013-0.006-0.023-0.014-0.036-0.02  c-0.158-0.071-0.33-0.111-0.511-0.123c-0.018-0.001-0.035-0.005-0.053-0.005c-0.017-0.001-0.032-0.005-0.049-0.005H8.465  c-0.017,0-0.033,0.004-0.05,0.005c-0.016,0.001-0.032,0.004-0.048,0.005c-0.183,0.012-0.358,0.053-0.518,0.125  c-0.01,0.004-0.018,0.011-0.028,0.015c-0.17,0.081-0.321,0.191-0.448,0.327c-0.005,0.005-0.011,0.006-0.016,0.011  c-0.008,0.008-0.009,0.019-0.017,0.028c-0.118,0.135-0.213,0.29-0.277,0.461c-0.008,0.02-0.012,0.04-0.019,0.061  c-0.048,0.146-0.08,0.3-0.08,0.462v53.128c0,0.164,0.033,0.32,0.082,0.468c0.007,0.02,0.011,0.039,0.018,0.059  c0.065,0.172,0.161,0.327,0.28,0.462c0.007,0.008,0.009,0.018,0.016,0.026c0.006,0.007,0.014,0.011,0.021,0.018  c0.049,0.051,0.103,0.096,0.159,0.14c0.025,0.019,0.047,0.042,0.073,0.06c0.066,0.046,0.137,0.083,0.21,0.117  c0.018,0.008,0.034,0.021,0.052,0.028c0.181,0.077,0.38,0.121,0.589,0.121h83.204c0.209,0,0.408-0.043,0.589-0.121  c0.028-0.012,0.054-0.03,0.081-0.044c0.062-0.031,0.124-0.063,0.181-0.102c0.03-0.021,0.057-0.048,0.086-0.071  c0.051-0.041,0.101-0.082,0.145-0.129c0.008-0.008,0.017-0.014,0.025-0.022c0.008-0.009,0.01-0.021,0.018-0.03  c0.117-0.134,0.211-0.288,0.275-0.458C93.078,76.267,93.083,76.246,93.09,76.224z M9.965,26.04l25.247,23.061L9.965,72.346V26.04z   M61.711,47.971c-0.104,0.068-0.214,0.125-0.301,0.221c-0.033,0.036-0.044,0.083-0.073,0.121l-11.27,10.294L12.331,24.138h75.472  L61.711,47.971z M37.436,51.132l11.619,10.613c0.287,0.262,0.649,0.393,1.012,0.393s0.725-0.131,1.011-0.393l11.475-10.481  l25.243,23.002H12.309L37.436,51.132z M64.778,49.232L90.169,26.04v46.33L64.778,49.232z"></path>
  </symbol>
  <symbol enable-background="new 0 0 128 128" id="spotify_icon" version="1.1" xml:space="preserve" xmlns="http://www.w3.org/2000/svg" xmlns:xlink="http://www.w3.org/1999/xlink" viewBox="0 0 128 128">
    <g id="_x34__stroke">
      <g id="Spotify_1_">
        <rect clip-rule="evenodd" fill="none" fill-rule="evenodd" height="128" width="128"></rect>
        <path clip-rule="evenodd" d="M64,0C28.8,0,0,28.8,0,64s28.8,64,64,64    s64-28.8,64-64S99.52,0,64,0 M93.44,92.48c-1.28,1.92-3.52,2.56-5.44,1.28c-15.04-9.28-33.92-11.2-56.32-6.08    c-2.24,0.64-4.16-0.96-4.8-2.88c-0.64-2.24,0.96-4.16,2.88-4.8c24.32-5.44,45.44-3.2,62.08,7.04C94.08,88,94.4,90.56,93.44,92.48     M101.12,74.88c-1.6,2.24-4.48,3.2-6.72,1.6c-17.28-10.56-43.52-13.76-63.68-7.36c-2.56,0.64-5.44-0.64-6.08-3.2    c-0.64-2.56,0.64-5.44,3.2-6.08c23.36-7.04,52.16-3.52,72,8.64C101.76,69.44,102.72,72.64,101.12,74.88 M101.76,56.96    C81.28,44.8,47.04,43.52,27.52,49.6c-3.2,0.96-6.4-0.96-7.36-3.84c-0.96-3.2,0.96-6.4,3.84-7.36c22.72-6.72,60.16-5.44,83.84,8.64    c2.88,1.6,3.84,5.44,2.24,8.32C108.48,57.6,104.64,58.56,101.76,56.96" fill="#10BC4C" fill-rule="evenodd" id="Spotify"></path>
      </g>
    </g>
  </symbol>
  <symbol version="1.1" xml:space="preserve" xmlns="http://www.w3.org/2000/svg" xmlns:xlink="http://www.w3.org/1999/xlink" viewBox="0 0 100 100" id="youtube_music_icon">
    <g id="Layer_1"></g>
    <g id="Layer_2">
      <g>
        <g>
          <g>
            <path fill="#FF0000" d="M50,2.5C23.766,2.5,2.5,23.823,2.5,50.126c2.502,63.175,92.507,63.157,95-0.001      C97.5,23.823,76.233,2.5,50,2.5z M50,77.399c-15.036,0-27.27-12.233-27.27-27.27c0.74-18.662,14.654-27.134,27.269-27.134      c0.001,0,0.001,0,0.002,0c12.616,0.001,26.531,8.473,27.267,27.073C77.27,65.167,65.036,77.399,50,77.399z"></path>
            <path fill="#FF0000" d="M50.002,26.103c-15.946-0.001-23.704,12.486-24.165,24.088C25.838,63.453,36.677,74.292,50,74.292      S74.162,63.453,74.162,50.13C73.705,38.591,65.948,26.105,50.002,26.103z"></path>
          </g>
          <path  fill="#FFF" d="M41.055,52.528c-0.001,2.575,0.001,7.867,0,10.46c0,0,21.802-13.417,21.802-13.417L41.055,37.272V52.528z"></path>
        </g>
      </g>
    </g>
  </symbol>
  <symbol id="facebook_icon" version="1.1" xmlns="http://www.w3.org/2000/svg" xmlnsCc="http://creativecommons.org/ns#" xmlnsDc="http://purl.org/dc/elements/1.1/" xmlnsInkscape="http://www.inkscape.org/namespaces/inkscape" xmlnsRdf="http://www.w3.org/1999/02/22-rdf-syntax-ns#" xmlnsSodipodi="http://sodipodi.sourceforge.net/DTD/sodipodi-0.dtd" xmlnsSvg="http://www.w3.org/2000/svg" viewBox="0 0 500 500">
    <defs id="defs4"></defs>
    <g id="layer1" transform="translate(0,-552.36218)">
      <rect height="500" id="rect3758-1" rx="250" ry="250" width="500" x="0" y="552.36218"></rect>
      <path d="M 289.6875 60 C 221.90317 60 199.53125 91.10057 199.53125 144.4375 L 199.53125 186.65625 L 155 186.65625 L 155 250.03125 L 199.53125 250.03125 L 199.53125 440 L 281.65625 440 L 281.65625 250.03125 L 337.46875 250.03125 L 344.96875 186.65625 L 281.65625 186.65625 L 281.65625 149 C 281.65625 131.97966 285.39148 123.34375 311.8125 123.34375 L 344.96875 123.34375 L 344.96875 60 L 289.6875 60 z " id="rect2989-1" transform="translate(0,552.36218)"></path>
    </g>
  </symbol>
  <symbol enable-background="new 0 0 24 24" id="itunes_icon" version="1.1" xml:space="preserve" xmlns="http://www.w3.org/2000/svg" xmlns:xlink="http://www.w3.org/1999/xlink" viewBox="0 0 24 24">
    <g>
      <linearGradient gradientUnits="userSpaceOnUse" id="XMLID_22_" x1="6.1438036" x2="17.6796341" y1="1.8567702" y2="21.8374157">
        <stop offset="0.0028864"></stop>
        <stop offset="0.3079062"></stop>
        <stop offset="0.6296292"></stop>
        <stop offset="0.7594132"></stop>
        <stop offset="0.8757026"></stop>
        <stop offset="0.9584637"></stop>
        <stop offset="1"></stop>
      </linearGradient>
      <circle cx="12" cy="12" fill="url(#XMLID_22_)" id="XMLID_1497_" r="12"></circle>
      <path d="M12,1C5.9248657,1,1,5.9248657,1,12s4.9248657,11,11,11s11-4.9248657,11-11S18.0751343,1,12,1z    M17,13.4550781c0,0.0097656,0,0.0195313,0,0.0292969c0,0.0048828,0,0.0107422,0,0.015625v2.4550781   c0,0.8515625-0.609375,1.5703125-1.4482422,1.7089844l-0.5341797,0.0888672   c-0.5048828,0.0810547-1.0161133-0.0585938-1.4052734-0.3876953S13,16.5537109,13,16.0439453   c0-0.8505859,0.6088867-1.5693359,1.4477539-1.7099609l0.9399414-0.15625C15.7426758,14.1191406,16,13.8144531,16,13.4550781   V8.5757446l-6,0.8579712v5.0213623c0,0.0097656,0,0.0195313-0.0004883,0.0302734C10,14.4902344,10,14.4960938,10,14.5009766   v2.4541016c0,0.8505859-0.6088867,1.5693359-1.4477539,1.7099609l-0.534668,0.0888672   c-0.0952148,0.015625-0.190918,0.0234375-0.2856445,0.0234375c-0.4072266,0-0.8037109-0.1435547-1.1196289-0.4111328   C6.2231445,18.0371094,6,17.5546875,6,17.0449219c0-0.8505859,0.6088867-1.5693359,1.4477539-1.7099609l0.9399414-0.15625   C8.7421875,15.1191406,9,14.8144531,9,14.4550781V6.5c0-0.2490234,0.1831055-0.4599609,0.4291992-0.4951172l7-1.0009766   c0.144043-0.0175781,0.2890625,0.0224609,0.3984375,0.1171875S17,5.3544922,17,5.4990234V13.4550781z" fill="#FAFAFA"></path>
      <path d="M12,1.25c3.5326538,0,6.683588,1.5824492,8.7699528,4.1091213   C18.7622013,2.6990874,15.5895386,1,12,1S5.2377982,2.6990874,3.2300467,5.3591213C5.3164115,2.8324492,8.4673462,1.25,12,1.25z" fill="#FFFFFF" opacity="0.2"></path>
      <path d="M12,22.75c-3.5326538,0-6.6835885-1.582449-8.7699528-4.1091213   c0.1426406,0.188982,0.2911608,0.3731136,0.4452927,0.5521297C5.6907053,21.5337601,8.6654797,23,12,23   c3.3393402,0,6.317894-1.4704819,8.333395-3.8171463c0.1510086-0.1758232,0.2966137-0.3565655,0.4365578-0.541975   C18.683588,21.167551,15.5326538,22.75,12,22.75z" fill="#010101" opacity="0.1"></path>
      <path d="M12,0.25c5.3213501,0,9.8378563,3.4220867,11.4659691,8.1991863   C21.95718,3.5462322,17.3914795,0,12,0S2.0428202,3.5462322,0.534031,8.4491863C2.1621439,3.6720867,6.6786499,0.25,12,0.25z" fill="#FFFFFF" opacity="0.2"></path>
      <path d="M12,23.75c-4.9705777,0-9.2389212-2.9858017-11.1069479-7.2727509   c-0.1318263-0.3025303-0.2516987-0.6115389-0.3590207-0.9264355c0.120821,0.3926191,0.2612445,0.7765388,0.4201247,1.1506329   C2.779341,20.9989796,7.0402603,24,12,24c4.5497475,0,8.5114346-2.5253754,10.54426-6.2603397   c0.2081795-0.3824921,0.3961315-0.7776718,0.5624123-1.184124c0.1341133-0.3278217,0.2541313-0.6629763,0.3592968-1.0047226   c-0.2567768,0.7534199-0.5854015,1.473135-0.9776974,2.1510353C20.3931961,21.3222198,16.4820938,23.75,12,23.75z" fill="#010101" opacity="0.1"></path>
      <path d="M7.4477539,15.5849609l0.9399414-0.15625C8.7421875,15.3691406,9,15.0644531,9,14.7050781   v-0.25c0,0.359375-0.2578125,0.6640625-0.6123047,0.7236328l-0.9399414,0.15625C6.6088867,15.4755859,6,16.1943359,6,17.0449219   c0,0.038208,0.0097656,0.074646,0.0122681,0.1124878C6.074585,16.3687744,6.6551514,15.7178345,7.4477539,15.5849609z" fill="#010101" opacity="0.1"></path>
      <path d="M10,14.7509766v-0.0458984c0,0.0097656,0,0.0195313-0.0004883,0.0302734   C10,14.7402344,10,14.7460938,10,14.7509766z" fill="#010101" opacity="0.1"></path>
      <path d="M16.8276367,5.1210938c-0.109375-0.0947266-0.2543945-0.1347656-0.3984375-0.1171875   l-7,1.0009766C9.1831055,6.0400391,9,6.2509766,9,6.5v0.25c0-0.2490234,0.1831055-0.4599609,0.4291992-0.4951172l7-1.0009766   c0.144043-0.0175781,0.2890625,0.0224609,0.3984375,0.1171875S17,5.6044922,17,5.7490234v-0.25   C17,5.3544922,16.9370117,5.2158203,16.8276367,5.1210938z" fill="#010101" opacity="0.1"></path>
      <path d="M14.4477539,14.5839844l0.9399414-0.15625   C15.7426758,14.3691406,16,14.0644531,16,13.7050781v-0.25c0,0.359375-0.2573242,0.6640625-0.6123047,0.7226563l-0.9399414,0.15625   C13.6088867,14.4746094,13,15.1933594,13,16.0439453c0,0.038208,0.0097656,0.074646,0.0122681,0.1124878   C13.074585,15.3677979,13.6551514,14.7168579,14.4477539,14.5839844z" fill="#010101" opacity="0.1"></path>
      <linearGradient gradientUnits="userSpaceOnUse" id="XMLID_23_" x1="1.1217111" x2="22.8782883" y1="6.9273705" y2="17.0726299">
        <stop offset="0"></stop>
        <stop offset="1"></stop>
      </linearGradient>
      <circle cx="12" cy="12" fill="url(#XMLID_23_)" id="XMLID_1023_" r="12"></circle>
    </g>
    <g></g>
    <g></g>
    <g></g>
    <g></g>
    <g></g>
    <g></g>
    <g></g>
    <g></g>
    <g></g>
    <g></g>
    <g></g>
    <g></g>
    <g></g>
    <g></g>
    <g></g>
  </symbol>
</svg>